<svg width="94" height="27" viewBox="0 0 94 27" fill="none" xmlns="http://www.w3.org/2000/svg">
<g clip-path="url(#clip0_112_14)">
<path d="M13.5 0C6.06662 0 0 6.06704 0 13.5C0 20.9334 6.06704 27 13.5 27C20.9334 27 27 20.933 27 13.5C27 6.06662 20.933 0 13.5 0ZM9.4731 2.28287C8.54687 3.46048 7.87377 4.91643 7.40802 6.32812H3.98783C5.37279 4.49582 7.27392 3.07478 9.4731 2.28287ZM2.97696 7.90488H6.96041C6.60255 9.40449 6.3913 11.0324 6.34057 12.709H1.60893C1.72252 10.9842 2.20446 9.35334 2.97696 7.90488ZM2.97696 19.0898C2.20446 17.6414 1.72252 16.0158 1.60893 14.291H6.34057C6.3913 15.9676 6.60255 17.5902 6.96041 19.0898H2.97696ZM3.98783 20.6719H7.40797C7.87361 22.0832 8.54671 23.5394 9.4731 24.7171C7.27392 23.9252 5.37279 22.5042 3.98783 20.6719ZM12.709 25.2837C10.9429 24.69 9.72517 22.4227 9.08202 20.6719H12.709V25.2837ZM12.709 19.0898H8.58964C8.2052 17.6114 7.97739 15.9846 7.92323 14.291H12.709V19.0898ZM12.709 12.709H7.92323C7.97745 11.0154 8.20526 9.38856 8.58964 7.91016H12.709V12.709ZM12.709 6.32812H9.08202C9.72511 4.5774 10.9429 2.30998 12.709 1.71629V6.32812ZM24.023 7.91016C24.7956 9.35861 25.2775 10.9842 25.3911 12.709H20.6594C20.6087 11.0324 20.3974 9.40976 20.0396 7.91016H24.023ZM23.0122 6.32812H19.592C19.1264 4.91679 18.4533 3.46064 17.5269 2.28287C19.7261 3.07478 21.6272 4.49582 23.0122 6.32812ZM14.291 1.71629C16.0571 2.30998 17.2748 4.57734 17.918 6.32812H14.291V1.71629ZM14.291 7.91016H18.4104C18.7948 9.38856 19.0226 11.0154 19.0768 12.709H14.291V7.91016ZM14.291 14.2857H19.0768C19.0226 15.9794 18.7947 17.6114 18.4104 19.0898H14.291V14.2857ZM14.291 25.2837V20.6666H17.918C17.2749 22.4173 16.0571 24.69 14.291 25.2837ZM17.5269 24.7171C18.4531 23.5395 19.1262 22.0782 19.592 20.6666H23.0122C21.6272 22.4989 19.7261 23.9252 17.5269 24.7171ZM24.023 19.0898H20.0396C20.3974 17.5902 20.6087 15.9623 20.6594 14.2857H25.3911C25.2775 16.0105 24.7955 17.6414 24.023 19.0898Z" fill="#4C4C4C"/>
</g>
<path d="M46.566 10.964H44.424C44.28 9.47 43.362 8.714 41.634 8.714C40.86 8.714 40.266 8.876 39.834 9.2C39.402 9.524 39.186 9.956 39.186 10.496C39.186 11.018 39.33 11.378 39.654 11.558C39.978 11.756 40.68 11.99 41.778 12.26C42.066 12.35 42.282 12.404 42.444 12.44C43.866 12.8 44.838 13.124 45.36 13.412C46.494 14.024 47.07 14.978 47.07 16.274C47.07 16.85 46.962 17.354 46.782 17.804C46.584 18.272 46.332 18.65 46.008 18.956C45.684 19.262 45.288 19.514 44.856 19.712C44.406 19.928 43.938 20.072 43.47 20.162C42.984 20.252 42.48 20.288 41.976 20.288C40.356 20.288 39.06 19.91 38.07 19.136C37.062 18.38 36.576 17.246 36.576 15.752H38.79C38.79 16.688 39.096 17.39 39.708 17.84C40.32 18.29 41.112 18.506 42.102 18.506C42.966 18.506 43.632 18.344 44.118 17.984C44.604 17.624 44.856 17.138 44.856 16.49C44.856 16.094 44.712 15.752 44.46 15.5C44.208 15.248 43.92 15.05 43.632 14.942C43.326 14.834 42.804 14.69 42.066 14.492C41.976 14.474 41.904 14.456 41.868 14.438C40.266 14.042 39.222 13.7 38.718 13.43C37.674 12.89 37.116 12.062 37.044 10.928V10.676C37.044 9.542 37.458 8.642 38.322 7.958C39.186 7.274 40.338 6.932 41.778 6.932C43.164 6.932 44.298 7.274 45.18 7.922C46.044 8.588 46.512 9.596 46.566 10.964ZM47.2759 7.184H49.5619L51.9019 16.94L54.5299 7.184H56.8159L59.3539 16.94L61.7659 7.184H64.0519L60.5059 20H58.2199L55.6279 10.154L52.9819 20H50.6599L47.2759 7.184ZM67.2259 7.184V20H64.9579V7.184H67.2259ZM78.2837 7.184V9.092H71.6777V12.584H77.4737V14.402H71.6777V20H69.4097V7.184H78.2837ZM88.7376 7.184V9.128H84.6516V20H82.4016V9.128H78.3156V7.184H88.7376Z" fill="#4C4C4C"/>
<defs>
<clipPath id="clip0_112_14">
<rect width="27" height="27" fill="white"/>
</clipPath>
</defs>
</svg>
