<svg width="130" height="14" viewBox="0 0 130 14" fill="none" xmlns="http://www.w3.org/2000/svg">
<g clip-path="url(#clip0_1_53)">
<path d="M0 13.4815V0.509697H15.2758C17.1684 0.509697 18.5299 0.791426 19.3603 1.35488C20.2028 1.90609 20.6241 2.79416 20.6241 4.01906V4.11094C20.6241 5.58081 19.9708 6.54238 18.6643 6.99559C19.9708 7.43656 20.6241 8.3736 20.6241 9.80676V9.89862C20.6241 11.148 20.2089 12.0606 19.3786 12.6363C18.5483 13.1998 17.1807 13.4815 15.2758 13.4815H0ZM2.01479 6.02179H15.697C16.6739 6.00955 17.3882 5.85643 17.84 5.56246C18.2918 5.26848 18.5177 4.82139 18.5177 4.22118V4.14768C18.5177 3.49847 18.2857 3.03914 17.8217 2.76966C17.3577 2.48793 16.5396 2.34706 15.3673 2.34706H2.01479V6.02179ZM2.01479 11.6441H15.3673C16.5396 11.6441 17.3577 11.5033 17.8217 11.2215C18.2857 10.9275 18.5177 10.4437 18.5177 9.77003V9.69653C18.5177 8.44711 17.5775 7.82242 15.697 7.82242H2.01479V11.6441Z" fill="white"/>
<path d="M43.0486 5.26848C43.0486 7.58354 41.9068 8.9922 39.6234 9.49441L42.4441 13.4815H40.0997L37.5354 9.71488H24.5309V13.4815H22.5161V0.509697H37.1875C41.095 0.509697 43.0486 2.06533 43.0486 5.1766V5.26848ZM41.0521 5.2501V5.15822C41.0521 4.19056 40.7469 3.48011 40.1364 3.02688C39.5257 2.57367 38.5428 2.34706 37.1875 2.34706H24.5309V7.89589H37.1875C38.5917 7.89589 39.5869 7.6938 40.1728 7.28956C40.759 6.87309 41.0521 6.19329 41.0521 5.2501Z" fill="white"/>
<path d="M65.4107 13.4815L63.0479 10.9643H47.7537L45.3909 13.4815H42.7351L55.41 0.142227L68.0481 13.4815H65.4107ZM49.384 9.21882H61.4176L55.41 2.80641L49.384 9.21882Z" fill="white"/>
<path d="M74.788 13.7571L62.6445 0.509697H65.2269L74.788 11.001L84.3491 0.509697H86.9318L74.788 13.7571Z" fill="white"/>
<path d="M87.757 13.4815V0.509697H106.348V2.34706H89.7718V6.02179H106.348V7.82242H89.7718V11.6441H106.348V13.4815H87.757Z" fill="white"/>
<path d="M106.964 13.4815L116.8 6.95886L106.964 0.5097L110.225 0.454578L118.43 5.83805L126.636 0.454578L129.896 0.5097L120.079 6.95886L129.896 13.4815H126.709L118.43 8.09801L110.151 13.4815H106.964Z" fill="white"/>
</g>
<defs>
<clipPath id="clip0_1_53">
<rect width="130" height="14" fill="white"/>
</clipPath>
</defs>
</svg>
