<svg width="40" height="40" viewBox="0 0 40 40" fill="none" xmlns="http://www.w3.org/2000/svg">
<path d="M21.1719 19.6611V28.5888L28.9035 24.125V15.1973L21.1719 19.6611Z" fill="white"/>
<path d="M12.2684 13.1675L20 17.6314L27.7316 13.1675L20 8.70361L12.2684 13.1675Z" fill="white"/>
<path d="M18.8281 19.6611L11.0965 15.1973V24.125L18.8281 28.5888V19.6611Z" fill="white"/>
<path d="M35.2911 6.71516C34.4484 6.71516 33.6765 7.02195 33.0795 7.52891L20.0391 0L6.95172 7.55602C6.35063 7.03297 5.56641 6.71516 4.70891 6.71516C2.82203 6.71516 1.28703 8.25016 1.28703 10.137C1.28703 11.6407 2.26242 12.9201 3.61344 13.378V28.45L16.5683 35.9295C16.5278 36.1396 16.5059 36.3562 16.5059 36.578C16.5059 38.4648 18.0409 39.9998 19.9277 39.9998C21.8145 39.9998 23.3495 38.4648 23.3495 36.578C23.3495 36.3971 23.3352 36.2195 23.308 36.046L36.4648 28.4499V13.3515C37.7752 12.8715 38.713 11.6117 38.713 10.137C38.713 8.25023 37.1779 6.71516 35.2911 6.71516ZM34.1174 27.0948L22.1672 33.9943C21.5665 33.473 20.7836 33.1563 19.9277 33.1563C19.1142 33.1563 18.3666 33.4421 17.7787 33.9179L5.96086 27.0948V13.3206C7.23 12.8198 8.1307 11.582 8.1307 10.137C8.1307 9.95758 8.11664 9.78141 8.08992 9.60937L20.0391 2.71047L31.9173 9.56836C31.8863 9.75344 31.8692 9.9432 31.8692 10.137C31.8692 11.6117 32.807 12.8715 34.1174 13.3515V27.0948Z" fill="white"/>
</svg>
