<svg width="40" height="40" viewBox="0 0 40 40" fill="none" xmlns="http://www.w3.org/2000/svg">
<path d="M20.9692 15.6078C19.1461 15.8655 17.5538 17.577 17.5384 17.5924C17.5155 17.6161 17.4897 17.6368 17.4615 17.6539C14.9846 19.2616 13.5884 18.0386 13.5307 17.9655C11.9461 16.5386 13.4 14.1463 13.4615 14.0463C14.1106 12.9674 14.8966 11.9771 15.8 11.1001H9.07304L6.15381 20.7309C6.18516 20.7483 6.21369 20.7703 6.23842 20.7963C10.7692 25.9193 16.7846 30.4655 19.1577 32.1809C19.4046 32.3635 19.7117 32.4455 20.0169 32.4103C20.322 32.3751 20.6024 32.2253 20.8013 31.9912C21.0001 31.7572 21.1027 31.4563 21.0882 31.1495C21.0737 30.8426 20.9431 30.5528 20.723 30.3386L17.4577 27.0732C17.386 27.0011 17.3458 26.9036 17.3458 26.802C17.3458 26.7004 17.386 26.6029 17.4577 26.5309C17.4934 26.4948 17.5359 26.4662 17.5828 26.4467C17.6297 26.4272 17.68 26.4171 17.7307 26.4171C17.7815 26.4171 17.8318 26.4272 17.8786 26.4467C17.9255 26.4662 17.9681 26.4948 18.0038 26.5309L19.7423 28.2693L21.2807 29.8078L22.05 30.5963C22.3259 30.865 22.6962 31.015 23.0814 31.0141C23.4666 31.0131 23.8361 30.8613 24.1107 30.5912C24.3853 30.3211 24.5432 29.9542 24.5506 29.5691C24.5579 29.1839 24.4141 28.8112 24.15 28.5309L21.1538 25.4039L20.5846 24.8155C20.5485 24.7797 20.5199 24.7372 20.5004 24.6903C20.4809 24.6435 20.4708 24.5932 20.4708 24.5424C20.4708 24.4916 20.4809 24.4414 20.5004 24.3945C20.5199 24.3476 20.5485 24.3051 20.5846 24.2693C20.6203 24.2333 20.6629 24.2047 20.7097 24.1851C20.7566 24.1656 20.8069 24.1556 20.8577 24.1556C20.9084 24.1556 20.9587 24.1656 21.0056 24.1851C21.0524 24.2047 21.095 24.2333 21.1307 24.2693L25.5038 28.8078C25.7156 29.0174 25.9836 29.161 26.2754 29.2211C26.5672 29.2812 26.8702 29.2554 27.1476 29.1466C27.425 29.0379 27.6648 28.8509 27.838 28.6085C28.0111 28.366 28.1102 28.0785 28.123 27.7809C28.1294 27.5712 28.0916 27.3625 28.0121 27.1683C27.9326 26.9742 27.8131 26.7989 27.6615 26.6539L25.0384 24.1155L23.2115 22.3424C23.1708 22.3085 23.1376 22.2665 23.1139 22.2191C23.0902 22.1718 23.0766 22.12 23.0738 22.0671C23.071 22.0142 23.0792 21.9613 23.0979 21.9118C23.1165 21.8622 23.1452 21.817 23.1821 21.779C23.219 21.741 23.2634 21.7111 23.3124 21.691C23.3614 21.671 23.4141 21.6613 23.467 21.6626C23.52 21.6638 23.5721 21.676 23.6201 21.6984C23.6682 21.7207 23.711 21.7527 23.7461 21.7924L28.9384 26.8193C29.0746 26.9592 29.2377 27.0701 29.4178 27.1452C29.598 27.2204 29.7915 27.2583 29.9867 27.2566C30.1819 27.255 30.3748 27.2139 30.5536 27.1357C30.7325 27.0575 30.8937 26.944 31.0275 26.8019C31.1613 26.6597 31.265 26.492 31.3322 26.3087C31.3995 26.1255 31.4289 25.9305 31.4188 25.7355C31.4087 25.5406 31.3592 25.3497 31.2733 25.1744C31.1875 24.9991 31.067 24.843 30.9192 24.7155L20.9692 15.6078Z" fill="white"/>
<path d="M7.89999 8.84635C5.9033 7.94867 3.72608 7.52481 1.53845 7.60789V22.6925H3.88845C4.13926 22.6931 4.38344 22.6119 4.584 22.4614C4.78457 22.3108 4.9306 22.0989 4.99999 21.8579L8.53076 10.231C8.61146 9.96293 8.59198 9.67469 8.47593 9.41996C8.35989 9.16522 8.15519 8.96136 7.89999 8.84635Z" fill="white"/>
<path d="M22.2154 9.5922C21.386 9.25077 20.4592 9.2302 19.6154 9.53451C18.1424 10.073 15.9924 11.3653 14.1039 14.4499C14.1039 14.473 12.9231 16.373 14.0347 17.396C14.0731 17.4307 15.0654 18.2614 16.9885 17.0345C17.2654 16.746 19.0001 15.0076 21.0501 14.8191C21.103 14.8147 21.1564 14.8213 21.2067 14.8385C21.257 14.8557 21.3032 14.8832 21.3424 14.9191L31.4231 24.1499C31.4693 24.1922 31.5116 24.2384 31.5539 24.2845C32.7077 24.1076 33.477 23.0537 33.7001 22.6691L30.0462 12.7114L22.2154 9.5922Z" fill="white"/>
<path d="M37.6924 9.44227C35.4986 9.4277 33.3227 9.8378 31.2847 10.65C31.0106 10.7674 30.7926 10.9864 30.6765 11.261C30.5603 11.5356 30.555 11.8446 30.6616 12.123L34.9424 23.773C35.0259 23.9978 35.1759 24.1918 35.3724 24.3292C35.5689 24.4666 35.8026 24.5409 36.0424 24.5423H38.4616V9.4615C38.2693 9.44996 38.0039 9.44227 37.6924 9.44227Z" fill="white"/>
</svg>
