<svg width="40" height="40" viewBox="0 0 40 40" fill="none" xmlns="http://www.w3.org/2000/svg">
<path d="M37.75 32.6166C37.8776 33.0964 37.877 33.6014 37.7481 34.0809C37.6191 34.5604 37.3665 34.9976 37.0154 35.3487C36.6643 35.6998 36.2271 35.9525 35.7476 36.0814C35.2681 36.2103 34.7631 36.211 34.2833 36.0833L31.0333 35.2166C29.1666 36.1743 27.0979 36.6715 25 36.6666C24.3305 36.6664 23.662 36.6162 23 36.5166C20.4268 36.1091 18.0319 34.9493 16.1166 33.1833C16.5833 33.1833 17.0333 33.1833 17.5 33.0833C19.9114 32.7238 22.2147 31.8396 24.2473 30.4931C26.2799 29.1465 27.9923 27.3704 29.2637 25.29C30.5351 23.2097 31.3346 20.8756 31.6058 18.4526C31.877 16.0296 31.6133 13.5766 30.8333 11.2666C32.7898 12.2042 34.488 13.6051 35.7805 15.3478C37.0729 17.0904 37.9206 19.1221 38.25 21.2666C38.6712 24.0145 38.2163 26.8252 36.95 29.2999L37.75 32.6166ZM24.4166 7.23328C22.6719 5.49225 20.4788 4.2689 18.0809 3.69909C15.6829 3.12928 13.1739 3.23531 10.8325 4.0054C8.49114 4.7755 6.40905 6.17951 4.81749 8.06152C3.22593 9.94353 2.18718 12.2299 1.81662 14.6666C1.39541 17.4145 1.85025 20.2252 3.11662 22.6999L2.24995 26.0333C2.11481 26.5127 2.11161 27.0197 2.24069 27.5008C2.36976 27.9819 2.62632 28.4192 2.98328 28.7666C3.33068 29.1236 3.768 29.3801 4.24909 29.5092C4.73018 29.6383 5.23719 29.6351 5.71662 29.4999L8.96662 28.6333C10.8404 29.5621 12.9088 30.0306 15 29.9999C17.6386 30.002 20.2185 29.2212 22.413 27.7562C24.6076 26.2913 26.3182 24.2081 27.3283 21.7705C28.3383 19.3328 28.6023 16.6503 28.087 14.0625C27.5717 11.4747 26.3001 9.09802 24.4333 7.23328H24.4166Z" fill="white"/>
</svg>
