<svg width="40" height="40" viewBox="0 0 40 40" fill="none" xmlns="http://www.w3.org/2000/svg">
<path d="M37.3469 30.4359L20.5734 39.85C20.2172 40.05 19.7828 40.05 19.4266 39.85L2.65312 30.4359C1.85547 29.9891 1.85703 28.8383 2.65312 28.3922L6.825 26.0508L18.2797 32.4797C19.348 33.0799 20.6536 33.079 21.7203 32.4797L33.175 26.0508L37.3469 28.3922C38.1445 28.8391 38.143 29.9898 37.3469 30.4359Z" fill="white"/>
<path d="M37.3469 18.9781L33.175 16.6367L21.7203 23.0656C20.6539 23.6648 19.3477 23.6656 18.2797 23.0656L6.825 16.6367L2.65312 18.9781C1.85703 19.4242 1.85547 20.575 2.65312 21.0219L19.4266 30.4359C19.7828 30.6359 20.2172 30.6359 20.5734 30.4359L37.3469 21.0219C38.143 20.5758 38.1445 19.425 37.3469 18.9781ZM9.64062 22.5641C8.99297 22.5641 8.46875 22.0391 8.46875 21.3922C8.46875 20.7445 8.99297 20.2203 9.64062 20.2203C10.2875 20.2203 10.8125 20.7445 10.8125 21.3922C10.8125 22.0391 10.2875 22.5641 9.64062 22.5641ZM14.6305 25.4664C13.9828 25.4664 13.4586 24.9414 13.4586 24.2945C13.4586 23.6469 13.9828 23.1227 14.6305 23.1227C15.2773 23.1227 15.8023 23.6469 15.8023 24.2945C15.8023 24.9414 15.2773 25.4664 14.6305 25.4664ZM20 28.1852C19.3531 28.1852 18.8281 27.6609 18.8281 27.0133C18.8281 26.3664 19.3531 25.8414 20 25.8414C20.6469 25.8414 21.1719 26.3664 21.1719 27.0133C21.1719 27.6609 20.6469 28.1852 20 28.1852ZM25.3695 25.4664C24.7227 25.4664 24.1977 24.9414 24.1977 24.2945C24.1977 23.6469 24.7227 23.1227 25.3695 23.1227C26.0172 23.1227 26.5414 23.6469 26.5414 24.2945C26.5414 24.9414 26.0172 25.4664 25.3695 25.4664ZM30.3594 22.5641C29.7125 22.5641 29.1875 22.0391 29.1875 21.3922C29.1875 20.7445 29.7125 20.2203 30.3594 20.2203C31.007 20.2203 31.5312 20.7445 31.5312 21.3922C31.5312 22.0391 31.007 22.5641 30.3594 22.5641Z" fill="white"/>
<path d="M37.3469 11.6078L20.5734 21.0219C20.2171 21.2219 19.7828 21.2219 19.4266 21.0219L2.65312 11.6078C1.85547 11.1609 1.85703 10.0102 2.65312 9.56406L19.4266 0.15C19.7829 -0.05 20.2172 -0.05 20.5734 0.15L37.3469 9.56406C38.1445 10.0109 38.143 11.1617 37.3469 11.6078Z" fill="white"/>
</svg>
