<svg width="40" height="40" viewBox="0 0 40 40" fill="none" xmlns="http://www.w3.org/2000/svg">
<path d="M4.44997 9.24976V17.4248C4.43746 26.0998 9.87501 34.0123 17.975 37.1248C18.625 37.3748 19.3125 37.4998 20 37.4998C20.6875 37.4998 21.3749 37.3748 22.025 37.1248L23.2375 36.6622C30.725 33.7747 35.5625 26.5373 35.55 18.2247V9.24976C35.55 8.57478 35.025 8.02478 34.35 7.99976C29.8625 7.82481 25.2749 6.06227 20.7375 2.7373C20.3 2.4248 19.7 2.4248 19.2624 2.7373C14.725 6.06227 10.1375 7.82481 5.65 7.99976C4.97495 8.02478 4.44997 8.57478 4.44997 9.24976ZM13.0124 18.9748C13.5 18.4873 14.3 18.4873 14.7875 18.9748L18.3249 22.5123L25.2125 15.6248C25.7 15.1373 26.5 15.1373 26.9875 15.6248C27.475 16.1123 27.475 16.8997 26.9875 17.3873L19.2125 25.1623C18.975 25.3998 18.65 25.5248 18.3249 25.5248C17.9875 25.5248 17.675 25.3998 17.4375 25.1623L13.0124 20.7373C12.525 20.2498 12.525 19.4623 13.0124 18.9748Z" fill="white"/>
</svg>
