<svg width="57" height="57" viewBox="0 0 57 57" fill="none" xmlns="http://www.w3.org/2000/svg">
<path d="M13.6 30.4C13.6 30.8 13.8 31 14.2 31C14.9 31 15.3 30.4 15.4 29.5C15.2 29.5 15.2 29.5 15 29.5C14.1 29.5 13.6 29.8 13.6 30.4Z" fill="#4C4C4C"/>
<path d="M39.2 30.4C39.2 30.8 39.4 31 39.8 31C40.5 31 40.9 30.4 41 29.5C40.8 29.5 40.8 29.5 40.6 29.5C39.6 29.5 39.2 29.8 39.2 30.4Z" fill="#4C4C4C"/>
<path d="M27 27.4004C26.5 27.4004 26.1 27.8004 26 28.5004H27.8C27.8 28.3004 28 27.4004 27 27.4004Z" fill="#4C4C4C"/>
<path d="M48.7 27.6006C48 27.6006 47.4 28.5006 47.4 29.7006C47.4 30.5006 47.7 30.9006 48.2 30.9006C49 30.9006 49.5 30.0006 49.5 28.8006C49.6 28.0006 49.3 27.6006 48.7 27.6006Z" fill="#4C4C4C"/>
<path d="M38.3 13.4004C34.5 13.4004 31 14.8004 28.3 17.2004C25.7 14.8004 22.2 13.4004 18.4 13.4004C10.2 13.4004 3.5 20.1004 3.5 28.3004C3.5 36.5004 10.2 43.2004 18.4 43.2004C22.2 43.2004 25.7 41.8004 28.3 39.4004C30.9 41.8004 34.4 43.2004 38.3 43.2004C46.5 43.2004 53.2 36.5004 53.2 28.3004C53.2 20.1004 46.5 13.4004 38.3 13.4004ZM9.79999 32.3004L10.7 26.5004L8.59998 32.3004H7.5L7.40002 26.5004L6.40002 32.3004H4.90002L6.20001 24.7004H8.5L8.59998 29.4004L10.2 24.7004H12.7L11.4 32.3004H9.79999ZM15.2 32.3004V31.7004C14.8 32.2004 14.2 32.4004 13.5 32.4004C12.6 32.4004 12 31.7004 12 30.7004C12 29.2004 13 28.3004 14.8 28.3004H15.5C15.6 28.1004 15.6 28.0004 15.6 27.9004C15.6 27.5004 15.3 27.3004 14.6 27.3004C13.8 27.3004 13.2 27.5004 12.9 27.6004C12.9 27.5004 13.1 26.2004 13.1 26.2004C13.9 26.0004 14.4 25.9004 15 25.9004C16.4 25.9004 17.1 26.5004 17.1 27.7004C17.1 28.0004 17.1 28.4004 17 28.9004C16.9 29.8004 16.6 31.7004 16.5 32.2004C16.3 32.3004 15.2 32.3004 15.2 32.3004ZM20 28.6004C20.8 29.0004 21.1 29.5004 21.1 30.3004C21.1 31.7004 20.3 32.4004 18.6 32.4004C17.6 32.4004 17.3 32.3004 16.9 32.2004C16.9 32.1004 17.1 30.8004 17.1 30.8004C17.6 31.0004 18.1 31.0004 18.6 31.0004C19.2 31.0004 19.5 30.8004 19.5 30.4004C19.5 30.1004 19.4 30.0004 18.7 29.7004C17.8 29.3004 17.5 28.8004 17.5 28.0004C17.5 26.9004 18.1 25.9004 19.9 25.9004C20.3 25.9004 20.9 26.0004 21.3 26.0004L21.1 27.4004C20.7 27.3004 20.3 27.3004 19.9 27.3004C19.4 27.3004 19.1 27.5004 19.1 27.8004C19.2 28.2004 19.3 28.3004 20 28.6004ZM23.5 30.9004C23.7 30.9004 23.8 30.9004 23.9 30.8004L23.7 32.2004C23.3 32.3004 22.9 32.4004 22.5 32.4004C21.7 32.4004 21.2 31.9004 21.2 31.0004C21.2 30.7004 21.3 30.0004 21.4 29.4004C21.5 28.8004 22.1 25.2004 22.1 25.2004H23.7L23.5 26.1004H24.3L24.1 27.6004H23.3C23.1 28.8004 22.8 30.2004 22.8 30.4004C23 30.7004 23.2 30.9004 23.5 30.9004ZM27.3 31.0004C27.9 31.0004 28.4 30.9004 29 30.6004L28.7 32.1004C28.1 32.3004 27.6 32.3004 27 32.3004C25.2 32.3004 24.3 31.4004 24.3 29.6004C24.3 27.5004 25.5 25.9004 27.1 25.9004C28.4 25.9004 29.3 26.8004 29.3 28.1004C29.3 28.6004 29.2 29.0004 29.1 29.6004H25.9C25.8 30.6004 26.4 31.0004 27.3 31.0004ZM30.9 32.3004H29.3L29.4 31.9004C29.7 30.0004 30 28.1004 30.2 26.2004H31.7C31.7 26.5004 31.6 26.8004 31.6 27.1004C32.1 26.4004 32.5 26.0004 33.2 26.1004C33 26.4004 32.7 27.1004 32.6 27.9004C31.6 27.8004 31.5 28.5004 30.9 32.3004ZM37.1 32.2004C36.5 32.4004 36.1 32.4004 35.7 32.4004C34 32.4004 32.9 31.1004 32.9 29.1004C32.9 26.4004 34.4 24.5004 36.6 24.5004C37.3 24.5004 38.1 24.8004 38.4 24.9004L38.1 26.5004C37.5 26.2004 37.1 26.1004 36.7 26.1004C35.5 26.1004 34.6 27.3004 34.6 28.9004C34.6 30.0004 35.2 30.7004 36.1 30.7004C36.5 30.7004 36.9 30.6004 37.5 30.3004L37.1 32.2004ZM42.1 32.3004C41.9 32.3004 40.8 32.3004 40.8 32.3004V31.7004C40.4 32.2004 39.8 32.4004 39.1 32.4004C38.2 32.4004 37.6 31.7004 37.6 30.7004C37.6 29.2004 38.6 28.3004 40.4 28.3004H41.1C41.2 28.1004 41.2 28.0004 41.2 27.9004C41.2 27.5004 40.9 27.3004 40.2 27.3004C39.4 27.3004 38.8 27.5004 38.5 27.6004C38.5 27.5004 38.7 26.2004 38.7 26.2004C39.5 26.0004 40 25.9004 40.6 25.9004C42 25.9004 42.7 26.5004 42.7 27.7004C42.7 28.0004 42.7 28.4004 42.6 28.9004C42.4 29.9004 42.1 31.8004 42.1 32.3004ZM44.3 32.3004H42.7L42.8 31.9004C43.1 30.0004 43.4 28.1004 43.6 26.2004H45.1C45.1 26.5004 45 26.8004 45 27.1004C45.5 26.4004 45.9 26.0004 46.6 26.1004C46.4 26.4004 46.1 27.1004 46 27.9004C45 27.8004 44.8 28.5004 44.3 32.3004ZM49.1 32.3004L49.2 31.7004C48.8 32.2004 48.3 32.4004 47.7 32.4004C46.5 32.4004 45.7 31.4004 45.7 29.8004C45.7 27.8004 46.9 26.0004 48.3 26.0004C48.9 26.0004 49.4 26.3004 49.8 26.8004L50.2 24.6004H51.8L50.6 32.2004H49.1V32.3004Z" fill="#4C4C4C"/>
</svg>
