<svg width="20" height="20" viewBox="0 0 20 20" fill="none" xmlns="http://www.w3.org/2000/svg">
<g clip-path="url(#clip0_1_324)">
<path d="M14.5892 11.9223L14.5817 11.9848C12.7492 11.0715 12.5575 10.9498 12.3208 11.3048C12.1567 11.5506 11.6783 12.1081 11.5342 12.2731C11.3883 12.4356 11.2433 12.4481 10.9958 12.3356C10.7458 12.2106 9.94333 11.9481 8.99333 11.0981C8.25333 10.4356 7.75666 9.62315 7.60999 9.37315C7.36583 8.95148 7.87666 8.89148 8.34166 8.01148C8.42499 7.83648 8.38249 7.69898 8.32083 7.57482C8.25833 7.44982 7.76083 6.22482 7.55249 5.73648C7.35249 5.24982 7.14666 5.31148 6.99249 5.31148C6.51249 5.26982 6.16166 5.27648 5.85249 5.59815C4.50749 7.07648 4.84666 8.60148 5.99749 10.2231C8.25916 13.1831 9.46416 13.7281 11.6675 14.4848C12.2625 14.674 12.805 14.6473 13.2342 14.5856C13.7125 14.5098 14.7067 13.9848 14.9142 13.3973C15.1267 12.8098 15.1267 12.3223 15.0642 12.2098C15.0025 12.0973 14.8392 12.0348 14.5892 11.9223Z" fill="white"/>
<path d="M17.1 2.87404C10.6925 -3.32013 0.0883333 1.17237 0.0841667 9.91071C0.0841667 11.6574 0.541667 13.3607 1.41333 14.8649L0 19.9999L5.27917 18.6232C11.8667 22.1815 19.9967 17.4565 20 9.91571C20 7.26904 18.9667 4.77821 17.0875 2.90654L17.1 2.87404ZM18.335 9.88821C18.33 16.249 11.3475 20.2215 5.825 16.9749L5.525 16.7965L2.4 17.609L3.2375 14.5715L3.03833 14.259C-0.398333 8.78821 3.55 1.63821 10.06 1.63821C12.2717 1.63821 14.3475 2.50071 15.9108 4.06321C17.4733 5.61237 18.335 7.68821 18.335 9.88821Z" fill="white"/>
</g>
<defs>
<clipPath id="clip0_1_324">
<rect width="20" height="20" fill="white"/>
</clipPath>
</defs>
</svg>
